<?xml version="1.0" standalone="no"?>
<!DOCTYPE svg PUBLIC "-//W3C//DTD SVG 20010904//EN"
 "http://www.w3.org/TR/2001/REC-SVG-20010904/DTD/svg10.dtd">
<svg version="1.0" xmlns="http://www.w3.org/2000/svg"
 width="360.000000pt" height="360.000000pt" viewBox="0 0 360.000000 360.000000"
 preserveAspectRatio="xMidYMid meet">

<g transform="translate(0.000000,360.000000) scale(0.100000,-0.100000)"
fill="#000000" stroke="none">
<path d="M1743 3134 c-67 -33 -63 35 -63 -1190 l0 -1109 -323 323 c-315 314
-324 322 -362 322 -83 0 -136 -66 -114 -143 6 -23 123 -146 422 -445 226 -227
424 -420 439 -428 15 -8 44 -14 65 -14 36 0 53 16 465 427 318 317 431 436
437 460 22 77 -31 143 -114 143 -38 0 -47 -8 -362 -322 l-323 -323 0 1109 c0
1241 5 1160 -71 1190 -48 20 -56 20 -96 0z"/>
</g>
</svg>
