<?xml version="1.0" standalone="no"?>
<!DOCTYPE svg PUBLIC "-//W3C//DTD SVG 20010904//EN"
 "http://www.w3.org/TR/2001/REC-SVG-20010904/DTD/svg10.dtd">
<svg version="1.0" xmlns="http://www.w3.org/2000/svg"
 width="360.000000pt" height="360.000000pt" viewBox="0 0 360.000000 360.000000"
 preserveAspectRatio="xMidYMid meet">

<g transform="translate(0.000000,360.000000) scale(0.100000,-0.100000)"
fill="#000000" stroke="none">
<path d="M2192 2709 c-41 -12 -72 -60 -72 -114 0 -38 8 -47 322 -362 l323
-323 -1109 0 c-1241 0 -1160 5 -1190 -71 -20 -49 -20 -53 0 -94 32 -69 -38
-65 1190 -65 l1109 0 -323 -323 c-314 -315 -322 -324 -322 -362 0 -83 66 -136
143 -114 23 6 146 123 445 422 227 226 420 424 428 439 8 15 14 44 14 65 0 36
-16 53 -427 465 -235 235 -437 431 -448 434 -41 11 -51 12 -83 3z"/>
</g>
</svg>
